<?xml version="1.0" encoding="UTF-8" standalone="no"?>
<!DOCTYPE svg PUBLIC "-//W3C//DTD SVG 1.1//EN" "http://www.w3.org/Graphics/SVG/1.1/DTD/svg11.dtd">
<svg width="100%" height="100%" viewBox="0 0 1182 1182" version="1.1" xmlns="http://www.w3.org/2000/svg" xmlns:xlink="http://www.w3.org/1999/xlink" xml:space="preserve" xmlns:serif="http://www.serif.com/" style="fill-rule:evenodd;clip-rule:evenodd;stroke-linejoin:round;stroke-miterlimit:2;">
    <g transform="matrix(0.956526,0,0,0.956526,25.6739,161.244)">
        <g transform="matrix(893.826,0,0,893.826,-0.0558642,693.28)">
            <clipPath id="_clip1">
                <rect x="0" y="-0.688" width="0.791" height="0.829"/>
            </clipPath>
            <g clip-path="url(#_clip1)">
                <path d="M0.933,-0.688L0.302,-0.688L0.302,-0.115C0.283,-0.131 0.255,-0.141 0.222,-0.141C0.099,-0.141 0,-0.05 0,0.047C0,0.106 0.048,0.141 0.109,0.141C0.209,0.141 0.331,0.048 0.332,-0.046L0.332,-0.376L0.933,-0.376M0.933,-0.501L0.332,-0.501L0.332,-0.563L0.933,-0.563L0.933,-0.501Z" style="fill:rgb(0,123,255);fill-opacity:0.6;fill-rule:nonzero;"/>
            </g>
        </g>
        <g transform="matrix(1018.7,0,0,1018.7,642.452,819.254)">
            <path d="M0.063,0L0.063,-0.727L0.217,-0.727L0.217,-0.127L0.529,-0.127L0.529,0L0.063,0Z" style="fill:rgb(0,123,255);fill-rule:nonzero;"/>
        </g>
    </g>
</svg>
