<?xml version="1.0" encoding="UTF-8" standalone="no"?>
<!DOCTYPE svg PUBLIC "-//W3C//DTD SVG 1.1//EN" "http://www.w3.org/Graphics/SVG/1.1/DTD/svg11.dtd">
<svg width="100%" height="100%" viewBox="0 0 556 79" version="1.1"
    xmlns="http://www.w3.org/2000/svg"
    xmlns:xlink="http://www.w3.org/1999/xlink" xml:space="preserve"
    xmlns:serif="http://www.serif.com/" style="fill-rule:evenodd;clip-rule:evenodd;stroke-linejoin:round;stroke-miterlimit:2; --fill-color: var(--color, rgb(255,255,255))">
    <g id="Logo-Idea-2" serif:id="Logo Idea 2" transform="matrix(1,0,0,1,-32,-157.77)">
        <g transform="matrix(100,0,0,100,83.7735,235)">
            <path d="M0.088,0L0.088,-0.727L0.176,-0.727L0.176,-0.078L0.514,-0.078L0.514,0L0.088,0Z" style="fill:var(--fill-color);fill-rule:nonzero;"/>
        </g>
        <g transform="matrix(100,0,0,100,140.023,235)">
            <path d="M0.077,0L0.077,-0.545L0.161,-0.545L0.161,0L0.077,0ZM0.119,-0.636C0.103,-0.636 0.089,-0.642 0.077,-0.653C0.066,-0.664 0.06,-0.678 0.06,-0.693C0.06,-0.709 0.066,-0.722 0.077,-0.733C0.089,-0.744 0.103,-0.75 0.119,-0.75C0.136,-0.75 0.15,-0.744 0.161,-0.733C0.173,-0.722 0.179,-0.709 0.179,-0.693C0.179,-0.678 0.173,-0.664 0.161,-0.653C0.15,-0.642 0.136,-0.636 0.119,-0.636Z" style="fill:var(--fill-color);fill-rule:nonzero;"/>
        </g>
        <g transform="matrix(100,0,0,100,163.745,235)">
            <path d="M0.088,0L0.088,-0.727L0.172,-0.727L0.172,-0.459L0.179,-0.459C0.185,-0.468 0.194,-0.48 0.205,-0.495C0.216,-0.51 0.232,-0.523 0.252,-0.535C0.273,-0.547 0.301,-0.553 0.337,-0.553C0.383,-0.553 0.423,-0.541 0.458,-0.518C0.493,-0.495 0.52,-0.463 0.54,-0.42C0.56,-0.378 0.57,-0.329 0.57,-0.271C0.57,-0.214 0.56,-0.164 0.54,-0.121C0.52,-0.079 0.493,-0.046 0.458,-0.023C0.424,0 0.384,0.011 0.338,0.011C0.303,0.011 0.275,0.006 0.254,-0.006C0.233,-0.018 0.217,-0.031 0.205,-0.046C0.194,-0.061 0.185,-0.074 0.179,-0.084L0.169,-0.084L0.169,0L0.088,0ZM0.17,-0.273C0.17,-0.232 0.176,-0.195 0.189,-0.164C0.201,-0.133 0.218,-0.108 0.241,-0.09C0.265,-0.073 0.293,-0.064 0.327,-0.064C0.362,-0.064 0.391,-0.073 0.415,-0.092C0.438,-0.11 0.456,-0.135 0.468,-0.167C0.48,-0.199 0.486,-0.234 0.486,-0.273C0.486,-0.311 0.48,-0.346 0.468,-0.377C0.456,-0.407 0.439,-0.432 0.415,-0.45C0.392,-0.468 0.362,-0.477 0.327,-0.477C0.293,-0.477 0.264,-0.469 0.241,-0.452C0.218,-0.434 0.2,-0.41 0.188,-0.38C0.176,-0.349 0.17,-0.313 0.17,-0.273Z" style="fill:var(--fill-color);fill-rule:nonzero;"/>
        </g>
        <g transform="matrix(100,0,0,100,225.819,235)">
            <path d="M0.077,0L0.077,-0.545L0.158,-0.545L0.158,-0.463L0.163,-0.463C0.173,-0.49 0.191,-0.512 0.217,-0.529C0.243,-0.546 0.273,-0.554 0.305,-0.554C0.312,-0.554 0.319,-0.554 0.328,-0.554C0.338,-0.553 0.345,-0.553 0.349,-0.553L0.349,-0.467C0.347,-0.468 0.34,-0.469 0.33,-0.471C0.32,-0.472 0.309,-0.473 0.298,-0.473C0.272,-0.473 0.248,-0.468 0.227,-0.456C0.207,-0.445 0.19,-0.43 0.178,-0.411C0.166,-0.392 0.161,-0.37 0.161,-0.345L0.161,0L0.077,0Z" style="fill:var(--fill-color);fill-rule:nonzero;"/>
        </g>
        <g transform="matrix(100,0,0,100,261.33,235)">
            <path d="M0.305,0.011C0.253,0.011 0.208,0 0.17,-0.024C0.132,-0.047 0.102,-0.08 0.082,-0.122C0.061,-0.164 0.051,-0.213 0.051,-0.268C0.051,-0.324 0.061,-0.374 0.082,-0.416C0.102,-0.459 0.131,-0.492 0.168,-0.517C0.205,-0.541 0.248,-0.553 0.297,-0.553C0.325,-0.553 0.353,-0.548 0.381,-0.538C0.409,-0.529 0.434,-0.514 0.457,-0.492C0.479,-0.471 0.498,-0.443 0.511,-0.408C0.525,-0.374 0.531,-0.331 0.531,-0.28L0.531,-0.244L0.111,-0.244L0.111,-0.317L0.446,-0.317C0.446,-0.348 0.44,-0.375 0.428,-0.399C0.416,-0.423 0.398,-0.442 0.376,-0.456C0.354,-0.47 0.327,-0.477 0.297,-0.477C0.263,-0.477 0.235,-0.469 0.21,-0.453C0.186,-0.436 0.167,-0.415 0.154,-0.388C0.141,-0.362 0.135,-0.334 0.135,-0.304L0.135,-0.256C0.135,-0.214 0.142,-0.18 0.156,-0.151C0.171,-0.123 0.191,-0.101 0.216,-0.086C0.242,-0.071 0.272,-0.064 0.305,-0.064C0.327,-0.064 0.347,-0.067 0.365,-0.073C0.383,-0.08 0.399,-0.089 0.412,-0.102C0.425,-0.114 0.435,-0.13 0.442,-0.149L0.523,-0.126C0.514,-0.099 0.5,-0.075 0.48,-0.054C0.46,-0.033 0.435,-0.017 0.405,-0.006C0.376,0.006 0.342,0.011 0.305,0.011Z" style="fill:var(--fill-color);fill-rule:nonzero;"/>
        </g>
        <g transform="matrix(100,0,0,100,319.569,235)">
            <path d="M0.486,-0.545C0.482,-0.581 0.464,-0.609 0.434,-0.629C0.404,-0.649 0.366,-0.659 0.322,-0.659C0.29,-0.659 0.262,-0.654 0.238,-0.643C0.214,-0.633 0.195,-0.619 0.182,-0.6C0.169,-0.582 0.162,-0.562 0.162,-0.538C0.162,-0.519 0.167,-0.502 0.176,-0.488C0.185,-0.475 0.197,-0.463 0.212,-0.454C0.227,-0.445 0.242,-0.437 0.258,-0.432C0.274,-0.426 0.289,-0.421 0.303,-0.418L0.376,-0.398C0.395,-0.393 0.416,-0.386 0.44,-0.377C0.463,-0.368 0.485,-0.356 0.507,-0.341C0.528,-0.326 0.546,-0.307 0.56,-0.284C0.574,-0.26 0.581,-0.232 0.581,-0.197C0.581,-0.158 0.571,-0.123 0.55,-0.091C0.53,-0.059 0.5,-0.034 0.461,-0.015C0.422,0.003 0.374,0.013 0.318,0.013C0.266,0.013 0.221,0.004 0.183,-0.012C0.145,-0.029 0.115,-0.053 0.094,-0.083C0.072,-0.113 0.06,-0.148 0.057,-0.188L0.148,-0.188C0.15,-0.16 0.159,-0.137 0.176,-0.119C0.192,-0.102 0.212,-0.088 0.237,-0.08C0.262,-0.071 0.289,-0.067 0.318,-0.067C0.352,-0.067 0.382,-0.072 0.409,-0.083C0.435,-0.094 0.457,-0.11 0.472,-0.129C0.488,-0.149 0.496,-0.172 0.496,-0.199C0.496,-0.223 0.489,-0.243 0.475,-0.258C0.462,-0.273 0.444,-0.285 0.422,-0.295C0.4,-0.304 0.376,-0.313 0.351,-0.32L0.261,-0.345C0.205,-0.362 0.16,-0.385 0.126,-0.415C0.093,-0.445 0.077,-0.485 0.077,-0.534C0.077,-0.575 0.088,-0.61 0.11,-0.641C0.132,-0.671 0.162,-0.695 0.199,-0.712C0.237,-0.729 0.279,-0.737 0.325,-0.737C0.372,-0.737 0.414,-0.729 0.45,-0.712C0.487,-0.695 0.516,-0.673 0.537,-0.644C0.559,-0.615 0.57,-0.582 0.571,-0.545L0.486,-0.545Z" style="fill:var(--fill-color);fill-rule:nonzero;"/>
        </g>
        <g transform="matrix(100,0,0,100,383.347,235)">
            <path d="M0.298,0.011C0.247,0.011 0.203,-0.001 0.166,-0.025C0.129,-0.049 0.101,-0.082 0.081,-0.125C0.061,-0.167 0.051,-0.215 0.051,-0.27C0.051,-0.325 0.061,-0.374 0.082,-0.417C0.102,-0.459 0.131,-0.492 0.168,-0.517C0.205,-0.541 0.248,-0.553 0.297,-0.553C0.335,-0.553 0.37,-0.545 0.401,-0.531C0.431,-0.517 0.457,-0.497 0.476,-0.472C0.496,-0.446 0.508,-0.416 0.513,-0.382L0.429,-0.382C0.423,-0.407 0.408,-0.429 0.387,-0.448C0.365,-0.468 0.335,-0.477 0.298,-0.477C0.266,-0.477 0.237,-0.469 0.213,-0.452C0.188,-0.435 0.169,-0.411 0.155,-0.381C0.142,-0.35 0.135,-0.314 0.135,-0.273C0.135,-0.231 0.142,-0.194 0.155,-0.163C0.168,-0.131 0.187,-0.107 0.212,-0.09C0.236,-0.073 0.265,-0.064 0.298,-0.064C0.32,-0.064 0.34,-0.068 0.358,-0.075C0.375,-0.083 0.39,-0.094 0.403,-0.108C0.415,-0.122 0.424,-0.139 0.429,-0.159L0.513,-0.159C0.508,-0.127 0.496,-0.098 0.478,-0.072C0.459,-0.047 0.435,-0.026 0.404,-0.011C0.374,0.004 0.339,0.011 0.298,0.011Z" style="fill:var(--fill-color);fill-rule:nonzero;"/>
        </g>
        <g transform="matrix(100,0,0,100,439.171,235)">
            <path d="M0.298,0.011C0.249,0.011 0.206,0 0.169,-0.024C0.132,-0.047 0.103,-0.08 0.082,-0.122C0.061,-0.164 0.051,-0.214 0.051,-0.27C0.051,-0.327 0.061,-0.376 0.082,-0.419C0.103,-0.461 0.132,-0.494 0.169,-0.517C0.206,-0.541 0.249,-0.553 0.298,-0.553C0.348,-0.553 0.391,-0.541 0.428,-0.517C0.465,-0.494 0.494,-0.461 0.514,-0.419C0.535,-0.376 0.545,-0.327 0.545,-0.27C0.545,-0.214 0.535,-0.164 0.514,-0.122C0.494,-0.08 0.465,-0.047 0.428,-0.024C0.391,0 0.348,0.011 0.298,0.011ZM0.298,-0.064C0.336,-0.064 0.366,-0.074 0.391,-0.093C0.415,-0.112 0.433,-0.137 0.444,-0.168C0.456,-0.2 0.462,-0.233 0.462,-0.27C0.462,-0.306 0.456,-0.34 0.444,-0.372C0.433,-0.403 0.415,-0.429 0.391,-0.448C0.366,-0.468 0.336,-0.477 0.298,-0.477C0.261,-0.477 0.23,-0.468 0.206,-0.448C0.182,-0.429 0.164,-0.403 0.152,-0.372C0.141,-0.34 0.135,-0.306 0.135,-0.27C0.135,-0.233 0.141,-0.2 0.152,-0.168C0.164,-0.137 0.182,-0.112 0.206,-0.093C0.23,-0.074 0.261,-0.064 0.298,-0.064Z" style="fill:var(--fill-color);fill-rule:nonzero;"/>
        </g>
        <g transform="matrix(100,0,0,100,498.83,235)">
            <path d="M0.077,0L0.077,-0.545L0.158,-0.545L0.158,-0.463L0.163,-0.463C0.173,-0.49 0.191,-0.512 0.217,-0.529C0.243,-0.546 0.273,-0.554 0.305,-0.554C0.312,-0.554 0.319,-0.554 0.328,-0.554C0.338,-0.553 0.345,-0.553 0.349,-0.553L0.349,-0.467C0.347,-0.468 0.34,-0.469 0.33,-0.471C0.32,-0.472 0.309,-0.473 0.298,-0.473C0.272,-0.473 0.248,-0.468 0.227,-0.456C0.207,-0.445 0.19,-0.43 0.178,-0.411C0.166,-0.392 0.161,-0.37 0.161,-0.345L0.161,0L0.077,0Z" style="fill:var(--fill-color);fill-rule:nonzero;"/>
        </g>
        <g transform="matrix(100,0,0,100,534.342,235)">
            <path d="M0.305,0.011C0.253,0.011 0.208,0 0.17,-0.024C0.132,-0.047 0.102,-0.08 0.082,-0.122C0.061,-0.164 0.051,-0.213 0.051,-0.268C0.051,-0.324 0.061,-0.374 0.082,-0.416C0.102,-0.459 0.131,-0.492 0.168,-0.517C0.205,-0.541 0.248,-0.553 0.297,-0.553C0.325,-0.553 0.353,-0.548 0.381,-0.538C0.409,-0.529 0.434,-0.514 0.457,-0.492C0.479,-0.471 0.498,-0.443 0.511,-0.408C0.525,-0.374 0.531,-0.331 0.531,-0.28L0.531,-0.244L0.111,-0.244L0.111,-0.317L0.446,-0.317C0.446,-0.348 0.44,-0.375 0.428,-0.399C0.416,-0.423 0.398,-0.442 0.376,-0.456C0.354,-0.47 0.327,-0.477 0.297,-0.477C0.263,-0.477 0.235,-0.469 0.21,-0.453C0.186,-0.436 0.167,-0.415 0.154,-0.388C0.141,-0.362 0.135,-0.334 0.135,-0.304L0.135,-0.256C0.135,-0.214 0.142,-0.18 0.156,-0.151C0.171,-0.123 0.191,-0.101 0.216,-0.086C0.242,-0.071 0.272,-0.064 0.305,-0.064C0.327,-0.064 0.347,-0.067 0.365,-0.073C0.383,-0.08 0.399,-0.089 0.412,-0.102C0.425,-0.114 0.435,-0.13 0.442,-0.149L0.523,-0.126C0.514,-0.099 0.5,-0.075 0.48,-0.054C0.46,-0.033 0.435,-0.017 0.405,-0.006C0.376,0.006 0.342,0.011 0.305,0.011Z" style="fill:var(--fill-color);fill-rule:nonzero;"/>
        </g>
        <g transform="matrix(87.7421,0,0,87.7421,31.9945,222.634)">
            <clipPath id="_clip1">
                <rect x="0" y="-0.688" width="0.791" height="0.829"/>
            </clipPath>
            <g clip-path="url(#_clip1)">
                <path d="M0.933,-0.688L0.302,-0.688L0.302,-0.115C0.283,-0.131 0.255,-0.141 0.222,-0.141C0.099,-0.141 0,-0.05 0,0.047C0,0.106 0.048,0.141 0.109,0.141C0.209,0.141 0.331,0.048 0.332,-0.046L0.332,-0.376L0.933,-0.376M0.933,-0.501L0.332,-0.501L0.332,-0.563L0.933,-0.563L0.933,-0.501Z" style="fill:var(--fill-color);fill-opacity:0.6;fill-rule:nonzero;"/>
            </g>
        </g>
        <g transform="matrix(100,0,0,100,-34.3666,226.555)">
            <path d="M0.933,-0.376L0.933,-0.688" style="fill:none;fill-rule:nonzero;"/>
        </g>
    </g>
</svg>
